<svg width="30" height="30" viewBox="0 0 30 30" fill="none" xmlns="http://www.w3.org/2000/svg">
<path d="M12.2517 24.2714C14.9124 24.2714 17.3659 23.4193 19.3733 21.9989L26.9251 29.4792C27.2756 29.8264 27.7377 30 28.2315 30C29.2671 30 30 29.2109 30 28.2009C30 27.7275 29.8407 27.2699 29.4902 26.9385L21.9862 19.4897C23.5635 17.4382 24.5035 14.8974 24.5035 12.1357C24.5035 5.46028 18.991 0 12.2517 0C5.52841 0 0 5.4445 0 12.1357C0 18.8112 5.51248 24.2714 12.2517 24.2714ZM12.2517 21.6518C6.99416 21.6518 2.64472 17.3435 2.64472 12.1357C2.64472 6.92793 6.99416 2.61967 12.2517 2.61967C17.5093 2.61967 21.8587 6.92793 21.8587 12.1357C21.8587 17.3435 17.5093 21.6518 12.2517 21.6518Z" fill="#212529"/>
</svg>
