<svg width="35" height="35" viewBox="0 0 35 35" fill="none" xmlns="http://www.w3.org/2000/svg">
<path d="M14.2937 28.3167C17.3978 28.3167 20.2602 27.3225 22.6022 25.6654L27.0074 30.0289L31.4126 34.3924C31.8216 34.7975 32.4238 35 33 35C34.2082 35 34.5 34.5 34.5 33.5C34.5 32.9477 34.4089 32.3866 34 32L25 23.5C26.8401 21.1065 28.5874 17.3803 28.5874 14.1583C28.5874 6.37033 22.1561 0 14.2937 0C6.44981 0 0 6.35192 0 14.1583C0 21.9463 6.43123 28.3167 14.2937 28.3167ZM14.2937 26C8.15985 26 2.5 20.2341 2.5 14.1583C2.5 8.08259 8.15985 2.5 14.2937 2.5C20.4275 2.5 26 8.08259 26 14.1583C26 20.2341 20.4275 26 14.2937 26Z" fill="#3E3E3E"/>
</svg>
