<svg width="202" height="202" viewBox="0 0 202 202" fill="none" xmlns="http://www.w3.org/2000/svg">
<path d="M17.1018 137.213C14.289 130.62 24.3652 118.704 43.1623 106.986" stroke="#46E556" stroke-width="6" stroke-linecap="round" stroke-linejoin="round"/>
<path d="M144.648 63.6906C166.309 59.0582 181.689 59.2042 184.502 65.7975" stroke="#46E556" stroke-width="6" stroke-linecap="round" stroke-linejoin="round"/>
<path d="M100.802 159.404C132.779 159.404 158.701 133.482 158.701 101.505C158.701 69.5281 132.779 43.6057 100.802 43.6057C68.8252 43.6057 42.9028 69.5281 42.9028 101.505C42.9028 133.482 68.8252 159.404 100.802 159.404Z" stroke="#212529" stroke-width="6" stroke-linecap="round" stroke-linejoin="round"/>
<path d="M80.603 100.418C88.7626 100.418 95.3773 93.8036 95.3773 85.644C95.3773 77.4843 88.7626 70.8697 80.603 70.8697C72.4434 70.8697 65.8287 77.4843 65.8287 85.644C65.8287 93.8036 72.4434 100.418 80.603 100.418Z" stroke="#212529" stroke-width="6" stroke-linecap="round" stroke-linejoin="round"/>
<path d="M126.956 85.6434C131.036 85.6434 134.344 82.3361 134.344 78.2563C134.344 74.1765 131.036 70.8692 126.956 70.8692C122.877 70.8692 119.569 74.1765 119.569 78.2563C119.569 82.3361 122.877 85.6434 126.956 85.6434Z" stroke="#212529" stroke-width="6" stroke-linecap="round" stroke-linejoin="round"/>
<path d="M108.274 147.853C111.175 147.853 113.527 145.501 113.527 142.6C113.527 139.698 111.175 137.346 108.274 137.346C105.372 137.346 103.02 139.698 103.02 142.6C103.02 145.501 105.372 147.853 108.274 147.853Z" stroke="#212529" stroke-width="6" stroke-linecap="round" stroke-linejoin="round"/>
<path d="M17.1044 137.214C21.8918 148.44 63.2462 141.552 109.474 121.832C115.812 119.13 121.912 116.322 127.704 113.469" stroke="#46E556" stroke-width="6" stroke-linecap="round" stroke-linejoin="round"/>
<path d="M145.157 104.197C171.665 89.0017 187.936 73.8416 184.502 65.797" stroke="#46E556" stroke-width="6" stroke-linecap="round" stroke-linejoin="round"/>
<path d="M136.482 118.814C141.939 118.814 146.362 114.391 146.362 108.934C146.362 103.477 141.939 99.0537 136.482 99.0537C131.025 99.0537 126.601 103.477 126.601 108.934C126.601 114.391 131.025 118.814 136.482 118.814Z" stroke="#46E556" stroke-width="6" stroke-linecap="round" stroke-linejoin="round"/>
</svg>
